<svg width="51" height="55" xmlns="http://www.w3.org/2000/svg" xmlns:xlink="http://www.w3.org/1999/xlink" overflow="hidden"><defs><clipPath id="clip0"><rect x="597" y="314" width="51" height="55"/></clipPath><clipPath id="clip1"><rect x="629" y="351" width="19" height="17"/></clipPath><clipPath id="clip2"><rect x="629" y="351" width="19" height="17"/></clipPath><clipPath id="clip3"><rect x="629" y="351" width="19" height="17"/></clipPath><clipPath id="clip4"><rect x="598" y="315" width="46" height="45"/></clipPath><clipPath id="clip5"><rect x="598" y="315" width="46" height="45"/></clipPath><clipPath id="clip6"><rect x="598" y="315" width="46" height="45"/></clipPath></defs><g clip-path="url(#clip0)" transform="translate(-597 -314)"><g clip-path="url(#clip1)"><g clip-path="url(#clip2)"><g clip-path="url(#clip3)"><path d="M633.322 368C632.462 368.001 631.63 367.674 630.978 367.079 630.326 366.483 629.897 365.658 629.77 364.755 629.643 363.851 629.825 362.929 630.285 362.157 630.744 361.384 631.45 360.813 632.272 360.547 636.026 359.321 639.267 356.757 641.446 353.287 641.978 352.456 642.797 351.882 643.725 351.689 644.654 351.496 645.616 351.701 646.403 352.258 647.19 352.816 647.738 353.681 647.927 354.665 648.117 355.649 647.932 356.673 647.414 357.514 644.316 362.444 639.711 366.088 634.377 367.83 634.035 367.943 633.68 368 633.322 368Z" fill="#262FFC"/></g></g></g><g clip-path="url(#clip4)"><g clip-path="url(#clip5)"><g clip-path="url(#clip6)"><path d="M620.636 351.685C623.556 351.685 626.411 350.836 628.839 349.245 631.267 347.653 633.16 345.391 634.277 342.745 635.395 340.099 635.687 337.187 635.118 334.377 634.548 331.568 633.142 328.988 631.077 326.962 629.012 324.937 626.381 323.557 623.517 322.999 620.652 322.44 617.684 322.727 614.986 323.823 612.288 324.919 609.982 326.775 608.359 329.157 606.737 331.539 605.871 334.338 605.871 337.203 605.871 341.044 607.427 344.728 610.196 347.444 612.965 350.16 616.72 351.685 620.636 351.685ZM620.596 359.327C625.065 359.327 629.434 358.027 633.15 355.592 636.867 353.156 639.763 349.694 641.473 345.644 643.183 341.594 643.63 337.138 642.758 332.838 641.886 328.539 639.733 324.59 636.573 321.49 633.412 318.391 629.385 316.28 625.002 315.425 620.618 314.571 616.075 315.01 611.946 316.688 607.817 318.367 604.288 321.208 601.806 324.853 599.324 328.499 597.999 332.784 598 337.168 598 340.078 598.584 342.96 599.72 345.649 600.856 348.338 602.52 350.781 604.618 352.839 606.717 354.896 609.208 356.528 611.949 357.642 614.691 358.755 617.629 359.328 620.596 359.327Z" fill="#00022B" fill-rule="evenodd"/></g></g></g></g></svg>